mtllib material.mtl
v 1.000000 1.000000 -1.000000
v 1.000000 -1.000000 -1.000000
v 1.000000 1.000000 1.000000
v 1.000000 -1.000000 1.000000
v -1.000000 1.000000 -1.000000
v -1.000000 -1.000000 -1.000000
v -1.000000 1.000000 1.000000
v -1.000000 -1.000000 1.000000
v -1.200000 -0.800102 -0.800102
v -1.000102 -1.000000 -1.000000
v -1.000102 -1.000000 1.000000
v -1.200000 -0.800102 0.800102
v -1.000102 1.000000 1.000000
v -1.200000 0.800102 0.800102
v -1.200000 0.800102 -0.800102
v -1.000102 1.000000 -1.000000
vn -0.0000 1.0000 -0.0000
vn -0.0000 -0.0000 1.0000
vn -0.0000 -1.0000 -0.0000
vn 1.0000 -0.0000 -0.0000
vn -0.0000 -0.0000 -1.0000
vn -0.7071 -0.7071 -0.0000
vn -0.7071 -0.0000 0.7071
vn -0.7071 -0.0000 -0.7071
vn -0.7071 0.7071 -0.0000
vt 0.625000 0.500000
vt 0.375000 0.500000
vt 0.625000 0.750000
vt 0.375000 0.750000
vt 0.625000 0.250000
vt 0.875000 0.500000
vt 0.375000 0.250000
vt 0.125000 0.500000
vt 0.625000 1.000000
vt 0.875000 0.750000
vt 0.375000 1.000000
vt 0.125000 0.750000
vt 0.399987 0.225013
vt 0.125000 0.500000
vt 0.375000 0.250000
vt 0.375000 1.000000
vt 0.125000 0.750000
vt 0.375000 0.000000
vt 0.399987 0.024987
vt 0.625000 1.000000
vt 0.875000 0.750000
vt 0.625000 0.000000
vt 0.600013 0.024987
vt 0.600013 0.225013
vt 0.875000 0.500000
vt 0.625000 0.250000

usemtl EdgeMaterial
f 1/1/1 5/6/1 7/10/1 3/3/1
f 4/4/2 3/3/2 7/9/2 8/11/2
f 8/11/2 7/9/2 13/20/2 11/16/2
f 6/8/3 2/2/3 4/4/3 8/12/3
f 2/2/4 1/1/4 3/3/4 4/4/4
f 6/7/5 5/5/5 1/1/5 2/2/5
f 5/5/5 6/7/5 10/15/5 16/26/5
f 6/8/3 8/12/3 11/17/3 10/14/3
f 7/10/1 5/6/1 16/25/1 13/21/1
f 10/15/6 11/18/6 12/19/6 9/13/6
f 11/18/7 13/22/7 14/23/7 12/19/7
f 16/26/8 10/15/8 9/13/8 15/24/8
f 13/22/9 16/26/9 15/24/9 14/23/9
